<svg width="38" height="34" viewBox="0 0 38 34" fill="none" xmlns="http://www.w3.org/2000/svg">
    <path d="M36.5183 4.76193C34.2661 1.9377 31.1008 0.298706 28.1116 0.298706C24.1654 0.298706 22.4961 2.18795 19.7544 2.18795C16.9274 2.18795 14.7797 0.304206 11.3669 0.304206C8.01471 0.304206 4.44524 2.35294 2.182 5.85642C-0.999732 10.7899 -0.455235 20.0656 4.70098 27.9663C6.54622 30.7933 9.01021 33.9723 12.2332 33.9998C15.1014 34.0273 15.9099 32.16 19.7956 32.1408C23.6814 32.1188 24.4184 34.0245 27.2811 33.9943C30.5068 33.9695 33.1056 30.4468 34.9508 27.6198C36.2736 25.5931 36.7658 24.5728 37.7915 22.2848C30.3308 19.4441 29.1346 8.83466 36.5183 4.76193Z" fill="#444B59"/>
    </svg>
    